<mxfile host="www.draw.io" modified="2019-10-18T06:11:32.962Z" agent="Mozilla/5.0 (Macintosh; Intel Mac OS X 10_14_1) AppleWebKit/537.36 (KHTML, like Gecko) Chrome/77.0.3865.90 Safari/537.36" etag="cQzmhQQzGgoi4iZ_64wg" version="12.1.3" type="github" pages="1">
  <diagram id="rLQeQ7mJVwlARS_flByB" name="Page-1">
    <mxGraphModel dx="1251" dy="661" grid="1" gridSize="10" guides="1" tooltips="1" connect="1" arrows="1" fold="1" page="1" pageScale="1" pageWidth="850" pageHeight="1100" math="0" shadow="0">
      <root>
        <mxCell id="0"/>
        <mxCell id="1" parent="0"/>
        <mxCell id="sxYwGinRjV6zQk8fRCI1-3" value="" style="edgeStyle=orthogonalEdgeStyle;rounded=0;orthogonalLoop=1;jettySize=auto;html=1;fillColor=#1ba1e2;strokeColor=#006EAF;" edge="1" parent="1" source="sxYwGinRjV6zQk8fRCI1-1" target="sxYwGinRjV6zQk8fRCI1-2">
          <mxGeometry relative="1" as="geometry"/>
        </mxCell>
        <mxCell id="sxYwGinRjV6zQk8fRCI1-20" value="" style="edgeStyle=orthogonalEdgeStyle;rounded=0;orthogonalLoop=1;jettySize=auto;html=1;dashed=1;strokeColor=#99CCFF;fontSize=15;fontColor=#FFFFFF;entryX=0.5;entryY=0;entryDx=0;entryDy=0;" edge="1" parent="1" source="sxYwGinRjV6zQk8fRCI1-1" target="sxYwGinRjV6zQk8fRCI1-21">
          <mxGeometry relative="1" as="geometry">
            <mxPoint x="150" y="410" as="targetPoint"/>
          </mxGeometry>
        </mxCell>
        <mxCell id="sxYwGinRjV6zQk8fRCI1-1" value="Pro-Code" style="rounded=1;whiteSpace=wrap;html=1;fillColor=#1ba1e2;strokeColor=#006EAF;fontColor=#ffffff;fontSize=15;" vertex="1" parent="1">
          <mxGeometry x="90" y="290" width="120" height="60" as="geometry"/>
        </mxCell>
        <mxCell id="sxYwGinRjV6zQk8fRCI1-5" value="" style="edgeStyle=orthogonalEdgeStyle;rounded=0;orthogonalLoop=1;jettySize=auto;html=1;fillColor=#1ba1e2;strokeColor=#006EAF;" edge="1" parent="1" source="sxYwGinRjV6zQk8fRCI1-2" target="sxYwGinRjV6zQk8fRCI1-4">
          <mxGeometry relative="1" as="geometry"/>
        </mxCell>
        <mxCell id="sxYwGinRjV6zQk8fRCI1-2" value="Low-Code" style="rounded=1;whiteSpace=wrap;html=1;fillColor=#1ba1e2;strokeColor=#006EAF;fontColor=#ffffff;fontSize=15;" vertex="1" parent="1">
          <mxGeometry x="320" y="290" width="120" height="60" as="geometry"/>
        </mxCell>
        <mxCell id="sxYwGinRjV6zQk8fRCI1-4" value="No-Code" style="rounded=1;whiteSpace=wrap;html=1;fillColor=#1ba1e2;strokeColor=#006EAF;fontColor=#ffffff;fontSize=15;" vertex="1" parent="1">
          <mxGeometry x="550.5" y="290" width="120" height="60" as="geometry"/>
        </mxCell>
        <mxCell id="sxYwGinRjV6zQk8fRCI1-6" value="" style="shape=curlyBracket;whiteSpace=wrap;html=1;rounded=1;rotation=90;strokeWidth=2;strokeColor=#99CCFF;" vertex="1" parent="1">
          <mxGeometry x="456" y="124" width="77" height="233" as="geometry"/>
        </mxCell>
        <mxCell id="sxYwGinRjV6zQk8fRCI1-17" value="" style="edgeStyle=orthogonalEdgeStyle;rounded=0;orthogonalLoop=1;jettySize=auto;html=1;fontColor=#FFFFFF;dashed=1;strokeColor=#99CCFF;" edge="1" parent="1" source="sxYwGinRjV6zQk8fRCI1-9" target="sxYwGinRjV6zQk8fRCI1-14">
          <mxGeometry relative="1" as="geometry"/>
        </mxCell>
        <mxCell id="sxYwGinRjV6zQk8fRCI1-18" value="" style="edgeStyle=orthogonalEdgeStyle;rounded=0;orthogonalLoop=1;jettySize=auto;html=1;fontColor=#FFFFFF;dashed=1;strokeColor=#99CCFF;" edge="1" parent="1" source="sxYwGinRjV6zQk8fRCI1-9" target="sxYwGinRjV6zQk8fRCI1-16">
          <mxGeometry relative="1" as="geometry"/>
        </mxCell>
        <mxCell id="sxYwGinRjV6zQk8fRCI1-9" value="数据可视化实验室" style="shape=hexagon;html=1;whiteSpace=wrap;perimeter=hexagonPerimeter;rounded=0;strokeColor=#0e8088;strokeWidth=1;fillColor=#b0e3e6;fontColor=#FFFFFF;dashed=1;fontSize=13;" vertex="1" parent="1">
          <mxGeometry x="429.5" y="150" width="130" height="45" as="geometry"/>
        </mxCell>
        <mxCell id="sxYwGinRjV6zQk8fRCI1-14" value="image2chart" style="ellipse;whiteSpace=wrap;html=1;dashed=1;strokeColor=#99CCFF;strokeWidth=1;fillColor=#B5EAED;gradientColor=none;fontColor=#FFFFFF;dashPattern=1 4;" vertex="1" parent="1">
          <mxGeometry x="284.5" y="152.5" width="100" height="40" as="geometry"/>
        </mxCell>
        <mxCell id="sxYwGinRjV6zQk8fRCI1-16" value="data2chart" style="ellipse;whiteSpace=wrap;html=1;dashed=1;strokeColor=#99CCFF;strokeWidth=1;fillColor=#B5EAED;gradientColor=none;fontColor=#FFFFFF;dashPattern=1 4;" vertex="1" parent="1">
          <mxGeometry x="604.5" y="152.5" width="100" height="40" as="geometry"/>
        </mxCell>
        <mxCell id="sxYwGinRjV6zQk8fRCI1-28" value="" style="rounded=0;orthogonalLoop=1;jettySize=auto;html=1;dashed=1;strokeColor=#99CCFF;fontSize=20;fontColor=#FFFFFF;entryX=0;entryY=0.5;entryDx=0;entryDy=0;exitX=1;exitY=0.25;exitDx=0;exitDy=0;" edge="1" parent="1" source="sxYwGinRjV6zQk8fRCI1-21" target="sxYwGinRjV6zQk8fRCI1-24">
          <mxGeometry relative="1" as="geometry">
            <mxPoint x="290" y="450" as="targetPoint"/>
          </mxGeometry>
        </mxCell>
        <mxCell id="sxYwGinRjV6zQk8fRCI1-29" value="" style="edgeStyle=none;rounded=0;orthogonalLoop=1;jettySize=auto;html=1;dashed=1;strokeColor=#99CCFF;fontSize=20;fontColor=#FFFFFF;entryX=0;entryY=0.5;entryDx=0;entryDy=0;exitX=1;exitY=0.75;exitDx=0;exitDy=0;" edge="1" parent="1" source="sxYwGinRjV6zQk8fRCI1-21" target="sxYwGinRjV6zQk8fRCI1-30">
          <mxGeometry relative="1" as="geometry"/>
        </mxCell>
        <mxCell id="sxYwGinRjV6zQk8fRCI1-31" value="" style="edgeStyle=none;rounded=0;orthogonalLoop=1;jettySize=auto;html=1;dashed=1;strokeColor=#99CCFF;fontSize=20;fontColor=#FFFFFF;" edge="1" parent="1" source="sxYwGinRjV6zQk8fRCI1-21" target="sxYwGinRjV6zQk8fRCI1-25">
          <mxGeometry relative="1" as="geometry"/>
        </mxCell>
        <mxCell id="sxYwGinRjV6zQk8fRCI1-21" value="可视化开发门户" style="rounded=0;whiteSpace=wrap;html=1;dashed=1;dashPattern=1 4;strokeColor=#10739e;strokeWidth=1;fillColor=#b1ddf0;fontSize=13;fontColor=#FFFFFF;" vertex="1" parent="1">
          <mxGeometry x="90" y="470" width="120" height="40" as="geometry"/>
        </mxCell>
        <mxCell id="sxYwGinRjV6zQk8fRCI1-24" value="统一跨端基础组件" style="ellipse;whiteSpace=wrap;html=1;dashed=1;strokeColor=#10739e;strokeWidth=1;fillColor=#b1ddf0;dashPattern=1 4;fontColor=#FFFFFF;" vertex="1" parent="1">
          <mxGeometry x="250" y="420" width="120" height="40" as="geometry"/>
        </mxCell>
        <mxCell id="sxYwGinRjV6zQk8fRCI1-25" value="工程&amp;amp;工具配套" style="ellipse;whiteSpace=wrap;html=1;dashed=1;strokeColor=#10739e;strokeWidth=1;fillColor=#b1ddf0;dashPattern=1 4;fontColor=#FFFFFF;" vertex="1" parent="1">
          <mxGeometry x="250" y="470" width="120" height="40" as="geometry"/>
        </mxCell>
        <mxCell id="sxYwGinRjV6zQk8fRCI1-30" value="开发者门户" style="ellipse;whiteSpace=wrap;html=1;dashed=1;strokeColor=#10739e;strokeWidth=1;fillColor=#b1ddf0;dashPattern=1 4;fontColor=#FFFFFF;" vertex="1" parent="1">
          <mxGeometry x="250" y="520" width="120" height="40" as="geometry"/>
        </mxCell>
        <mxCell id="sxYwGinRjV6zQk8fRCI1-32" value="零售通数据可视化产品开发" style="text;html=1;strokeColor=none;fillColor=none;align=center;verticalAlign=middle;whiteSpace=wrap;rounded=0;dashed=1;dashPattern=1 4;fontSize=24;fontColor=#7EA6E0;fontStyle=0" vertex="1" parent="1">
          <mxGeometry x="450" y="450" width="294" height="80" as="geometry"/>
        </mxCell>
        <mxCell id="sxYwGinRjV6zQk8fRCI1-33" value="LV" style="text;html=1;strokeColor=none;fillColor=none;align=center;verticalAlign=middle;whiteSpace=wrap;rounded=0;dashed=1;dashPattern=1 4;fontSize=36;fontColor=#7EA6E0;fontStyle=1" vertex="1" parent="1">
          <mxGeometry x="100" y="143.5" width="100" height="58" as="geometry"/>
        </mxCell>
      </root>
    </mxGraphModel>
  </diagram>
</mxfile>
